 <svg  version="1.0" xmlns="http://www.w3.org/2000/svg"  width="300.000000pt" height="250.000000pt" viewBox="0 0 300.000000 250.000000"  preserveAspectRatio="xMidYMid meet">  <g transform="translate(0.000000,250.000000) scale(0.100000,-0.100000)" fill="#dd6d61" stroke="none"> <path d="M1369 2059 c-78 -11 -172 -44 -249 -86 -79 -44 -240 -203 -288 -285 -133 -226 -133 -550 0 -776 18 -32 78 -102 133 -157 84 -84 114 -108 185 -142 103 -51 180 -71 297 -79 155 -11 317 25 441 98 32 18 102 78 157 133 84 83 108 114 143 185 59 122 76 199 76 355 0 153 -15 219 -77 345 -34 71 -58 101 -142 185 -55 55 -125 115 -157 133 -144 85 -335 118 -519 91z m356 -73 c221 -75 384 -238 462 -461 25 -73 28 -92 28 -225 0 -133 -3 -152 -28 -225 -78 -223 -239 -384 -462 -462 -73 -25 -92 -28 -225 -28 -133 0 -152 3 -225 28 -224 78 -386 241 -461 462 -39 114 -45 277 -15 395 67 265 258 459 523 530 110 30 294 23 403 -14z"/> <path d="M1150 1492 c0 -5 26 -85 58 -178 l59 -169 54 -3 55 -3 13 38 c7 21 35 99 62 174 27 74 49 139 49 143 0 4 -21 6 -47 4 l-46 -3 -18 -55 c-10 -30 -29 -91 -42 -135 -14 -44 -27 -73 -29 -65 -3 8 -23 70 -44 138 l-38 122 -43 0 c-24 0 -43 -4 -43 -8z m96 -129 c16 -47 39 -100 53 -116 l25 -30 21 25 c12 14 34 64 49 112 26 80 40 105 52 93 3 -3 -9 -41 -26 -85 -17 -44 -33 -89 -35 -99 -13 -68 -44 -101 -78 -86 -17 8 -32 39 -65 135 -43 127 -49 154 -33 143 6 -3 22 -44 37 -92z"/> <path d="M1630 1489 c-29 -12 -77 -55 -92 -83 -6 -10 -12 -42 -15 -71 -13 -137 127 -236 251 -176 38 19 86 71 86 95 0 16 -83 4 -110 -15 -36 -27 -92 -21 -120 13 -35 41 -18 145 25 162 34 13 82 6 100 -14 13 -14 31 -20 62 -20 23 0 43 3 43 8 0 4 -9 21 -20 39 -36 60 -139 90 -210 62z m76 -32 c4 -4 -3 -7 -15 -7 -66 0 -118 -75 -107 -154 8 -53 37 -85 93 -104 l38 -12 -42 4 c-72 7 -108 47 -117 131 -5 48 16 98 53 124 37 26 81 34 97 18z m87 -34 c-15 -5 -73 24 -73 37 0 6 19 1 43 -11 23 -12 37 -24 30 -26z m-3 -212 c0 -12 -59 -35 -67 -27 -4 4 3 9 15 13 12 3 22 9 22 14 0 5 7 9 15 9 8 0 15 -4 15 -9z"/> </g> </svg> 